<?xml version="1.0" encoding="utf-8"?>
<!-- Generator: Adobe Illustrator 25.3.1, SVG Export Plug-In . SVG Version: 6.00 Build 0)  -->
<svg version="1.1" id="Capa_1" xmlns="http://www.w3.org/2000/svg" xmlns:xlink="http://www.w3.org/1999/xlink" x="0px" y="0px"
	 viewBox="0 0 310 60" style="enable-background:new 0 0 310 60;" xml:space="preserve">
<style type="text/css">
	.st0{fill-rule:evenodd;clip-rule:evenodd;fill:#FFFFFF;}
	.st1{fill:#FFFFFF;}
</style>
<g>
	<path class="st0" d="M88.3,0.7c16.2,0,29.3,13.1,29.3,29.3s-13.1,29.3-29.3,29.3C72.1,59.3,59,46.2,59,30S72.1,0.7,88.3,0.7z
		 M88.3,10.8c10.6,0,19.2,8.6,19.2,19.2s-8.6,19.2-19.2,19.2S69.1,40.6,69.1,30S77.7,10.8,88.3,10.8L88.3,10.8z"/>
	<g>
		<path class="st1" d="M44.5,59.3H33.4V34.9H11.2v24.5H0.1V1.6h11.1v22.2h22.2V1.6l11.1,0V59.3z M176.6,59.3h-8.6L143.4,23v36.4
			h-10.8V1.7h8.7l24.9,34.6l-0.3-34.7h10.8V59.3z M264.9,1.6h24.3c5.8,0,10.7,3.7,12.6,6c1.6,1.9,4.3,6.5,4.3,11.7
			c0,3-0.3,7.6-2.4,11c-1.9,3.1-5.7,6.6-10.1,7.7l16.3,21.5h-13l-21.7-25.2v25.2h-10.3L264.9,1.6L264.9,1.6z M276,11.6v17h9.5
			c6.6,0,9.7-4,9.8-8.6c0.1-4.2-4.3-8.4-8.7-8.4L276,11.6z"/>
	</g>
	<path class="st0" d="M220.9,0.7c16.2,0,29.3,13.1,29.3,29.3s-13.1,29.3-29.3,29.3S191.6,46.2,191.6,30S204.7,0.7,220.9,0.7z
		 M220.9,10.8c10.6,0,19.2,8.6,19.2,19.2s-8.6,19.2-19.2,19.2c-10.6,0-19.2-8.6-19.2-19.2S210.3,10.8,220.9,10.8L220.9,10.8z"/>
</g>
</svg>
